<svg width="333" height="333" viewBox="50 50 333 333" fill="none" xmlns="http://www.w3.org/2000/svg">
<g clip-path="url(#clip0_1313_6325)">
<g clip-path="url(#clip1_1313_6325)">
<rect width="382" height="381" transform="translate(25.5 26)" fill="url(#paint0_linear_1313_6325)"/>
</g>
<path d="M145.849 121.504L112.5 158.124H169.087C174.162 158.19 177.651 159.78 179.47 160.802C184.833 163.818 187.474 168.54 189.892 172.876C192.018 176.682 193.228 180.116 193.926 182.494C179.831 213.858 165.732 245.222 151.637 276.586H191.097L213.737 226.021L247.063 299.233C247.888 301.027 250.249 305.538 255.427 308.761C260.943 312.191 266.313 312.082 268.221 311.953C282.55 311.953 296.879 311.953 311.208 311.953L334.5 275.321H289.29C285.605 275.368 282.872 274.495 281.218 273.798C274.109 270.81 270.666 264.286 269.03 261.184C267.852 258.952 267.123 256.966 266.677 255.557C238.345 192.159 216.996 145.835 211.449 134.224C210.305 131.827 208.275 128.42 204.728 125.659C197.995 120.419 190.115 120.866 182.119 121.155C173.924 121.453 161.925 121.723 145.849 121.504Z" fill="white"/>
</g>
<defs>
<linearGradient id="paint0_linear_1313_6325" x1="191" y1="0" x2="191" y2="381" gradientUnits="userSpaceOnUse">
<stop stop-color="#10A37F"/>
<stop offset="1" stop-color="#00D492"/>
</linearGradient>
<clipPath id="clip0_1313_6325">
<rect x="50" y="50" width="333" height="333" rx="55" fill="white"/>
</clipPath>
<clipPath id="clip1_1313_6325">
<rect width="382" height="381" fill="white" transform="translate(25.5 26)"/>
</clipPath>
</defs>
</svg>
